<?xml version="1.0" encoding="utf-8"?>
<!-- Generator: Adobe Illustrator 19.2.1, SVG Export Plug-In . SVG Version: 6.00 Build 0)  -->
<!DOCTYPE svg PUBLIC "-//W3C//DTD SVG 1.1//EN" "http://www.w3.org/Graphics/SVG/1.1/DTD/svg11.dtd">
<svg version="1.1" id="Layer_1" xmlns="http://www.w3.org/2000/svg" xmlns:xlink="http://www.w3.org/1999/xlink" x="0px" y="0px"
	 viewBox="0 0 42 42" style="enable-background:new 0 0 42 42;" xml:space="preserve">
<style type="text/css">
	.st0{fill:none;stroke:#000000;stroke-miterlimit:10;}
</style>
<rect x="19.5" y="6.5" class="st0" width="18" height="32"/>
<rect x="3.5" y="17.5" class="st0" width="16" height="21"/>
<path class="st0" d="M19.5,17.5H2.7c-0.6,0-1.2-0.4-1.2-0.9V16c0-0.6,0.7-0.5,1.2-0.5h16.8V17.5z"/>
<path class="st0" d="M39.6,5.5c0,0.7-0.5,1-1.1,1H18.9c-0.6,0-1.1-0.3-1.1-1l0,0c0-0.7,0.5-1,1.1-1h19.6C39.1,4.5,39.6,4.8,39.6,5.5
	L39.6,5.5z"/>
<path class="st0" d="M34.5,14.5c0,0.6-0.4,1-1,1h-10c-0.6,0-1-0.4-1-1v-4c0-0.6,0.4-1,1-1h10c0.6,0,1,0.4,1,1V14.5z"/>
<path class="st0" d="M34.5,24.5c0,0.6-0.4,1-1,1h-10c-0.6,0-1-0.4-1-1v-4c0-0.6,0.4-1,1-1h10c0.6,0,1,0.4,1,1V24.5z"/>
<path class="st0" d="M34.5,33.5c0,0.6-0.4,1-1,1h-10c-0.6,0-1-0.4-1-1v-4c0-0.6,0.4-1,1-1h10c0.6,0,1,0.4,1,1V33.5z"/>
<line class="st0" x1="23" y1="12.5" x2="35" y2="12.5"/>
<line class="st0" x1="23" y1="22.5" x2="35" y2="22.5"/>
<line class="st0" x1="23" y1="32.5" x2="35" y2="32.5"/>
<path class="st0" d="M15.5,34.5h-8V21c0-0.6,0.8-0.5,1.4-0.5h5.5c0.6,0,1.1,0,1.1,0.5V34.5z"/>
<line class="st0" x1="8" y1="23.5" x2="15" y2="23.5"/>
<line class="st0" x1="8" y1="27.5" x2="15" y2="27.5"/>
<line class="st0" x1="8" y1="31.5" x2="15" y2="31.5"/>
<line class="st0" x1="11.5" y1="20" x2="11.5" y2="31"/>
</svg>
