<?xml version="1.0" encoding="utf-8"?>
<!-- Generator: Adobe Illustrator 19.2.1, SVG Export Plug-In . SVG Version: 6.00 Build 0)  -->
<!DOCTYPE svg PUBLIC "-//W3C//DTD SVG 1.1//EN" "http://www.w3.org/Graphics/SVG/1.1/DTD/svg11.dtd">
<svg version="1.1" id="Layer_1" xmlns="http://www.w3.org/2000/svg" xmlns:xlink="http://www.w3.org/1999/xlink" x="0px" y="0px"
	 viewBox="0 0 42 42" style="enable-background:new 0 0 42 42;" xml:space="preserve">
<style type="text/css">
	.st0{fill:none;stroke:#000000;stroke-miterlimit:10;}
</style>
<g>
	<path class="st0" d="M30.2,6.3l-5.4,8.5c2.2,1.4,3.5,3.9,3.3,6.6c0,0.1,0,0.2,0,0.2l10.1,0.1C38.5,15.3,35.2,9.5,30.2,6.3z"/>
	<path class="st0" d="M13.7,20.6c0.3-4,3.7-7.1,7.7-6.9c0.6,0,1.2,0.2,1.8,0.3l5.4-8.6c-2-1-4.2-1.6-6.6-1.8
		C12.5,3,4.3,10.3,3.7,19.8C3,29.4,10.3,37.7,19.8,38.4c9.3,0.6,17.2-6.2,18.3-15.2H27.9c-0.9,3-4,5.3-7.4,5.1
		C16.5,28.1,13.4,24.6,13.7,20.6z"/>
	<line class="st0" x1="27.9" y1="18.3" x2="38.2" y2="18.3"/>
	<line class="st0" x1="25.3" y1="14.3" x2="36.7" y2="14.3"/>
	<path class="st0" d="M36.1,12.4"/>
	<path class="st0" d="M26.4,12.4"/>
	<line class="st0" x1="27.8" y1="10.2" x2="34.5" y2="10.2"/>
</g>
</svg>
