<?xml version="1.0" encoding="utf-8"?>
<!-- Generator: Adobe Illustrator 19.2.1, SVG Export Plug-In . SVG Version: 6.00 Build 0)  -->
<!DOCTYPE svg PUBLIC "-//W3C//DTD SVG 1.1//EN" "http://www.w3.org/Graphics/SVG/1.1/DTD/svg11.dtd">
<svg version="1.1" id="Layer_1" xmlns="http://www.w3.org/2000/svg" xmlns:xlink="http://www.w3.org/1999/xlink" x="0px" y="0px"
	 viewBox="0 0 42 42" style="enable-background:new 0 0 42 42;" xml:space="preserve">
<style type="text/css">
	.st0{fill:none;stroke:#000000;stroke-miterlimit:10;}
</style>
<g>
	<g>
		<path d="M30,36.4l0.3-20.4l4.6-7.5c0.6,0.1,1.3-0.1,1.7-0.7C37.1,7,36.8,6,36.1,5.5l-4.6-2.8c-0.7-0.5-1.7-0.2-2.2,0.5
			c-0.4,0.6-0.3,1.3,0.1,1.8l-4.6,7.5L6.8,22.2c-1,0.5-1.7,1.6-1.7,2.7c0,1.2,0.5,2.2,1.5,2.8L25.2,39c1,0.6,2.2,0.6,3.2,0.1
			C29.4,38.5,30,37.5,30,36.4L30,36.4z M31,3.6l4.6,2.8c0.3,0.2,0.4,0.5,0.2,0.8S35.2,7.5,35,7.4l-4.6-2.8C30.1,4.4,30,4,30.2,3.8
			C30.4,3.5,30.7,3.4,31,3.6L31,3.6z M27.9,38.2c-0.7,0.4-1.5,0.4-2.2,0L7.2,26.8c-0.7-0.4-1.1-1.1-1-1.9c0-0.8,0.5-1.5,1.2-1.9
			l18.2-9.6c0.1,0,0.1-0.1,0.2-0.2l4.6-7.6L34,8l-4.6,7.6c0,0.1-0.1,0.2-0.1,0.3L29,36.3C29,37.1,28.6,37.8,27.9,38.2L27.9,38.2z
			 M27.9,38.2"/>
		<path class="st0" d="M27.4,22.9c0-0.2-15.6-0.5-15.7-0.4l-3.3,1.6C8.2,24.3,8,24.6,8,25c0,0.4,0.2,0.7,0.5,0.9L26,36.6
			c0.3,0.2,0.7,0.2,1,0c0.3-0.2,0.5-0.5,0.5-0.9L27.4,22.9z"/>
		<ellipse transform="matrix(0.9932 -0.1161 0.1161 0.9932 -2.8309 2.5374)" class="st0" cx="20.4" cy="25.6" rx="1.6" ry="1.6"/>
		<ellipse transform="matrix(0.9932 -0.1161 0.1161 0.9932 -3.3317 2.9609)" class="st0" cx="23.8" cy="30.1" rx="0.9" ry="0.9"/>
	</g>
</g>
</svg>
