<?xml version="1.0" encoding="utf-8"?>
<!-- Generator: Adobe Illustrator 19.2.1, SVG Export Plug-In . SVG Version: 6.00 Build 0)  -->
<!DOCTYPE svg PUBLIC "-//W3C//DTD SVG 1.1//EN" "http://www.w3.org/Graphics/SVG/1.1/DTD/svg11.dtd">
<svg version="1.1" id="Layer_1" xmlns="http://www.w3.org/2000/svg" xmlns:xlink="http://www.w3.org/1999/xlink" x="0px" y="0px"
	 viewBox="0 0 42 42" style="enable-background:new 0 0 42 42;" xml:space="preserve">
<style type="text/css">
	.st0{fill:none;stroke:#000000;stroke-miterlimit:10;}
	.st1{fill:none;stroke:#000000;stroke-miterlimit:1;}
</style>
<path class="st0" d="M8.5,38c0,0.8-0.7,1.5-1.5,1.5l0,0c-0.8,0-1.5-0.7-1.5-1.5V4c0-0.8,0.7-1.5,1.5-1.5l0,0c0.8,0,1.5,0.7,1.5,1.5
	V38z"/>
<path class="st1" d="M10.5,6.4c0,0,4.7-4.1,10.7-4.1c7.6,0,10.3,2.5,10.3,2.5v17c0,0-3.4-3.1-10.3-3.1c-5.3,0-10.7,5.2-10.7,5.2V6.4
	z"/>
<path class="st0" d="M31.5,21.7c0,1.9-2.3,4.1-4.9,1.5c-2.7-2.7-5.1-2.5-5.1-0.4c0,4.3,10.1,5.8,15,3.5c0.2-7.5,0-18.8,0-18.8H32"/>
<line class="st0" x1="21.5" y1="23" x2="21.5" y2="19"/>
</svg>
