<?xml version="1.0" encoding="utf-8"?>
<!-- Generator: Adobe Illustrator 19.2.1, SVG Export Plug-In . SVG Version: 6.00 Build 0)  -->
<!DOCTYPE svg PUBLIC "-//W3C//DTD SVG 1.1//EN" "http://www.w3.org/Graphics/SVG/1.1/DTD/svg11.dtd">
<svg version="1.1" id="Layer_1" xmlns="http://www.w3.org/2000/svg" xmlns:xlink="http://www.w3.org/1999/xlink" x="0px" y="0px"
	 viewBox="0 0 42 42" style="enable-background:new 0 0 42 42;" xml:space="preserve">
<style type="text/css">
	.st0{fill:none;stroke:#000000;stroke-miterlimit:10;}
	.st1{fill:none;stroke:#000000;stroke-linecap:round;stroke-miterlimit:10;}
</style>
<g>
	<path class="st0" d="M36.2,35.5c2-3,3.3-6.5,3.3-10.4C39.4,15,31.2,6.8,21,6.8c-10.2,0-18.4,8.2-18.4,18.4c0,3.9,1.2,7.4,3.3,10.4
		H36.2z"/>
	<path class="st0" d="M21,10.3c-8.3,0-15,6.7-15,15c0,2.6,0.7,4.2,1.9,7.2h9.4c0.1-2,1.8-3.6,3.8-3.6c2,0,3.7,1.6,3.8,3.6h9.4
		c1.2-3,1.9-4.7,1.9-7.3C36.1,16.9,29.3,10.3,21,10.3z"/>
	<line class="st1" x1="21" y1="10.4" x2="21" y2="11.7"/>
	<line class="st1" x1="14.2" y1="12" x2="14.6" y2="13.2"/>
	<line class="st1" x1="8.5" y1="17.1" x2="9.7" y2="17.7"/>
	<line class="st1" x1="6.3" y1="24.2" x2="7.6" y2="24.2"/>
	<line class="st1" x1="35.6" y1="24.2" x2="34.1" y2="24.4"/>
	<line class="st1" x1="33.2" y1="17.1" x2="32.1" y2="18"/>
	<line class="st1" x1="27.9" y1="12.3" x2="27.3" y2="13.2"/>
	<path class="st1" d="M20.1,29l5.3-8.1c0,0,0.1-0.2,0.3-0.2c0.2,0,0,0.4,0,0.4l-2.4,8.6"/>
</g>
</svg>
