<?xml version="1.0" encoding="utf-8"?>
<!-- Generator: Adobe Illustrator 19.2.1, SVG Export Plug-In . SVG Version: 6.00 Build 0)  -->
<!DOCTYPE svg PUBLIC "-//W3C//DTD SVG 1.1//EN" "http://www.w3.org/Graphics/SVG/1.1/DTD/svg11.dtd">
<svg version="1.1" id="Layer_1" xmlns="http://www.w3.org/2000/svg" xmlns:xlink="http://www.w3.org/1999/xlink" x="0px" y="0px"
	 viewBox="0 0 202 30" style="enable-background:new 0 0 202 30;" xml:space="preserve">
<style type="text/css">
	.st0{fill:#333333;}
</style>
<g>
	<polygon class="st0" points="25.1,3.1 20.6,18.1 20.5,18.1 16.8,3.1 13.2,3.1 9.1,18.1 9,18.1 4.6,3.1 1,3.1 7.1,23.1 10.7,23.1 
		14.8,9.4 14.9,9.4 18.6,23.1 22.2,23.1 28.8,3.1 	"/>
	<rect x="31.4" y="7.3" class="st0" width="3.4" height="15.8"/>
	<path class="st0" d="M65.5,10.5V7.3h-4.2V3.9h-3.4v14.8c0,3.5,1.6,5,4.2,5c1.5,0,2.7-0.4,3.3-0.6v-2.8c-0.4,0-1.3,0.1-1.7,0.1
		c-1.8,0-2.4-0.6-2.4-2.1v-7.9H65.5z"/>
	<path class="st0" d="M81.7,14.2c0-5.2-2.3-7.4-6.2-7.4c-5.2,0-7.3,3.6-7.3,8.6c0,4.2,1.8,8,7.4,8c2.2,0,4.1-0.4,5.2-0.6v-3.2
		c-1.1,0.2-2.3,0.6-4.5,0.6c-3.4,0-4.5-1.1-4.8-3.6h10.1C81.6,16,81.7,15.3,81.7,14.2z M78.5,14h-7c0.2-2.4,1.5-4.2,3.9-4.2
		c1.8,0,3.2,1.1,3.2,3.5V14z"/>
	<path class="st0" d="M119.1,3.3c-1-0.2-2.8-0.5-4.4-0.5c-7.3,0-10.9,4.6-10.9,11c0,5.8,3.5,9.7,9.2,9.7c3.2,0,5.3-0.7,6.4-1.3v-3.5
		c-1.5,0.6-3.5,1.3-5.8,1.3c-4.6,0-6.3-2.9-6.3-6.3c0-5.2,2.7-7.6,7.8-7.6c1.5,0,3,0.2,4,0.4C119.1,6.5,119.1,3.3,119.1,3.3z"/>
	<path class="st0" d="M146.9,6.9c-3.5,0-7.2,1.6-7.2,2.5V29h3.4v-5.6c0.6,0.1,1.3,0.1,1.7,0.1c5.1,0,8.8-3.3,8.8-9.2
		C153.7,10.2,152.3,6.9,146.9,6.9z M144.4,20.4c-0.4,0-0.7,0-1.1-0.1v-9.1c0-0.7,1.9-1,3.4-1c2.5,0,3.8,1.3,3.8,4.1
		C150.5,18.5,148.6,20.4,144.4,20.4z"/>
	<rect x="157.7" y="7.3" class="st0" width="3.4" height="15.8"/>
	<path class="st0" d="M130.2,6.9c-5.7,0-8.4,3.8-8.4,8.8c0,4.4,2.3,7.9,7.3,7.9c2.8,0,6.2-0.8,6.2-1.5V7.3
		C133.6,7.1,132,6.9,130.2,6.9z M129.2,20.3c-3.3,0-4.1-2.1-4.1-4.7c0-2.9,1.6-5.5,4.6-5.5c0.7,0,1.3,0,2.2,0.1v9.5
		C132,20,130.6,20.3,129.2,20.3z"/>
	<path class="st0" d="M33.2,5.7c1.2,0,2.3-1,2.3-2.3s-1.1-2.3-2.3-2.3c-1.3,0-2.3,1-2.3,2.3S32,5.7,33.2,5.7z"/>
	<path class="st0" d="M159.5,5.7c1.2,0,2.3-1,2.3-2.3s-1.1-2.3-2.3-2.3c-1.2,0-2.3,1-2.3,2.3C157.2,4.8,158.3,5.7,159.5,5.7z"/>
	<path class="st0" d="M89,11.2c0-0.7,1.5-1,2.9-1c1,0,2.2,0.1,2.9,0.2l0.1-3.2c-1-0.2-1.6-0.5-3.6-0.5c-3.5,0-5.8,1.5-5.8,2.8v13.5
		h3.4V11.2H89z"/>
	<path class="st0" d="M47.3,6.9c-4.2,0-7.5,1.6-7.5,2.5v13.6h3.4V10.9c0-0.5,2.1-0.8,3.6-0.8c2.1,0,2.9,0.8,2.9,3.2v9.8h3.4V12
		C53.2,8.6,51.2,6.9,47.3,6.9z"/>
	<path class="st0" d="M184.3,6.9c-5.7,0-8.4,3.8-8.4,8.8c0,4.4,2.3,7.9,7.3,7.9c3.2,0,6.2-0.8,6.2-1.5V7.3
		C187.7,7.1,186.1,6.9,184.3,6.9z M183.3,20.3c-3.3,0-4.1-2.1-4.1-4.7c0-2.9,1.6-5.5,4.6-5.5c0.7,0,1.3,0,2.2,0.1v9.5
		C186.1,20,184.6,20.3,183.3,20.3z"/>
	<path class="st0" d="M173.6,10.5V7.3h-4.2V3.9H166v14.8c0,3.5,1.6,5,4.2,5c1.5,0,2.7-0.4,3.3-0.6v-2.8c-0.4,0-1.3,0.1-1.7,0.1
		c-1.8,0-2.4-0.6-2.4-2.1v-7.9H173.6z"/>
	<path class="st0" d="M199.3,20.4c-1.8,0-2.4-0.6-2.4-2.1V3.9h-3.4v14.8c0,3.5,1.6,5,4.2,5c1.5,0,2.7-0.4,3.3-0.6v-2.8
		C200.6,20.3,199.7,20.4,199.3,20.4z"/>
</g>
</svg>
